PathFileType	4	(X/Y/Z)	RBDS03static.trc
DataRate	CameraRate	NumFrames	NumMarkers	Units	OrigDataRate	OrigDataStartFrame	OrigNumFrames
150.000000	150.000000	4	48	mm	150.000000	0	150
Frame#	Time	L.Ankle			L.Ankle.Medial			L.ASIS			L.GTR			L.Heel.Bottom			L.Heel.Lateral			L.Heel.Top			L.HF			L.Iliac.Crest			L.Knee			L.Knee.Medial			L.MT1			L.MT2			L.MT5			L.PSIS			L.Shank.Bottom.Lateral			L.Shank.Bottom.Medial			L.Shank.Top.Lateral			L.Shank.Top.Medial			L.Thigh.Bottom.Lateral			L.Thigh.Bottom.Medial			L.Thigh.Top.Lateral			L.Thigh.Top.Medial			L.TT			R.Ankle			R.Ankle.Medial			R.ASIS			R.GTR			R.Heel.Bottom			R.Heel.Lateral			R.Heel.Top			R.HF			R.Iliac.Crest			R.Knee			R.Knee.Medial			R.MT1			R.MT2			R.MT5			R.PSIS			R.Shank.Bottom.Lateral			R.Shank.Bottom.Medial			R.Shank.Top.Lateral			R.Shank.Top.Medial			R.Thigh.Bottom.Lateral			R.Thigh.Bottom.Medial			R.Thigh.Top.Lateral			R.Thigh.Top.Medial			R.TT			
		X1	Y1	Z1	X2	Y2	Z2	X3	Y3	Z3	X4	Y4	Z4	X5	Y5	Z5	X6	Y6	Z6	X7	Y7	Z7	X8	Y8	Z8	X9	Y9	Z9	X10	Y10	Z10	X11	Y11	Z11	X12	Y12	Z12	X13	Y13	Z13	X14	Y14	Z14	X15	Y15	Z15	X16	Y16	Z16	X17	Y17	Z17	X18	Y18	Z18	X19	Y19	Z19	X20	Y20	Z20	X21	Y21	Z21	X22	Y22	Z22	X23	Y23	Z23	X24	Y24	Z24	X25	Y25	Z25	X26	Y26	Z26	X27	Y27	Z27	X28	Y28	Z28	X29	Y29	Z29	X30	Y30	Z30	X31	Y31	Z31	X32	Y32	Z32	X33	Y33	Z33	X34	Y34	Z34	X35	Y35	Z35	X36	Y36	Z36	X37	Y37	Z37	X38	Y38	Z38	X39	Y39	Z39	X40	Y40	Z40	X41	Y41	Z41	X42	Y42	Z42	X43	Y43	Z43	X44	Y44	Z44	X45	Y45	Z45	X46	Y46	Z46	X47	Y47	Z47	X48	Y48	Z48	

1	0	716.8566284179688	111.4589767456055	1045.45849609375	727.4324340820313	119.9494781494141	1126.213989257813	849.54833984375	1064.565185546875	1104.222045898438	782.79443359375	959.8728637695313	1050.484008789063	638.2191162109375	42.66015625	1086.65380859375	674.6405639648438	58.14999771118164	1043.212280273438	649.1841430664063	92.85605621337891	1089.837890625	722.1427612304688	496.4623107910156	1048.241577148438	767.07275390625	1121.922607421875	1064.749633789063	721.2269897460938	552.379150390625	1055.950073242188	722.585205078125	536.1712646484375	1170.101806640625	859.1926879882813	62.11209869384766	1140.583129882813	867.0609130859375	73.50587463378906	1099.834350585938	835.1532592773438	55.38504409790039	1031.8525390625	688.2080688476563	1080.80029296875	1182.038330078125	710.4086303710938	186.5672607421875	1043.746948242188	666.9312133789063	185.7451934814453	1076.569091796875	701.8217163085938	265.4883422851563	1032.748291015625	659.1539306640625	265.6831359863281	1065.10791015625	736.6174926757813	644.1080932617188	1049.084228515625	677.5479736328125	650.35205078125	1093.545776367188	738.5551147460938	754.0679321289063	1039.6220703125	684.091796875	760.3539428710938	1083.65673828125	773.0368041992188	476.8805847167969	1094.84033203125	708.5829467773438	110.3096313476563	1411.29541015625	728.07861328125	127.5084228515625	1333.450317382813	873.125244140625	1071.945434570313	1316.847045898438	813.697021484375	968.0374755859375	1386.2431640625	631.6256713867188	45.23369598388672	1364.957641601563	668.7030639648438	66.60585784912109	1410.983642578125	641.855224609375	93.83482360839844	1364.4306640625	724.728271484375	498.9230651855469	1410.164184570313	806.6181030273438	1134.543701171875	1363.217529296875	728.43603515625	565.7501220703125	1400.2373046875	730.483642578125	541.6779174804688	1286.41015625	844.8119506835938	58.12543487548828	1322.950439453125	861.8970336914063	75.80389404296875	1371.171020507813	824.9466552734375	51.39184188842773	1437.752807617188	698.3421630859375	1084.225219726563	1264.520263671875	694.7775268554688	179.9436950683594	1413.397216796875	662.216064453125	183.3810424804688	1373.138671875	688.5977172851563	264.2364196777344	1423.201171875	655.92822265625	263.581787109375	1380.1572265625	766.390380859375	674.2047119140625	1406.710327148438	699.9490966796875	675.6197509765625	1375.359130859375	765.0895385742188	785.2456665039063	1409.39111328125	703.9994506835938	785.9254150390625	1376.082397460938	779.01171875	478.3154907226563	1368.818237304688	
2	0.006666666666666667	716.8681640625	111.4480285644531	1045.450317382813	727.439453125	119.9411697387695	1126.225830078125	849.5386352539063	1064.560302734375	1104.209228515625	782.7950439453125	959.8638916015625	1050.486206054688	638.2250366210938	42.6451416015625	1086.65625	674.6470947265625	58.13771057128906	1043.212768554688	649.2049560546875	92.84645080566406	1089.83837890625	722.14404296875	496.4527893066406	1048.237548828125	767.0692749023438	1121.919189453125	1064.7451171875	721.2244873046875	552.375732421875	1055.93896484375	722.5953369140625	536.1774291992188	1170.103881835938	859.2108154296875	62.09624481201172	1140.58203125	867.0677490234375	73.50161743164063	1099.834350585938	835.1458129882813	55.38278961181641	1031.848022460938	688.1991577148438	1080.796752929688	1182.041748046875	710.4125366210938	186.5553131103516	1043.755004882813	666.9373168945313	185.7334136962891	1076.565551757813	701.8247680664063	265.4853515625	1032.74609375	659.1519775390625	265.6897583007813	1065.098510742188	736.4934692382813	644.0995483398438	1049.101196289063	677.5465087890625	650.3606567382813	1093.554077148438	738.5563354492188	754.072021484375	1039.622802734375	684.0887451171875	760.3545532226563	1083.669067382813	773.0343627929688	476.8891906738281	1094.831420898438	708.6054077148438	110.3057098388672	1411.298461914063	728.0919799804688	127.497917175293	1333.450927734375	873.1075439453125	1071.95751953125	1316.849731445313	813.6719360351563	968.0400390625	1386.250122070313	631.6275634765625	45.22480010986328	1364.958618164063	668.7094116210938	66.59995269775391	1410.98193359375	641.86083984375	93.82779693603516	1364.426025390625	724.7215576171875	498.9269714355469	1410.167358398438	806.5776977539063	1134.540771484375	1363.232299804688	728.4249267578125	565.7575073242188	1400.24169921875	730.485107421875	541.6748657226563	1286.41162109375	844.8257446289063	58.1131706237793	1322.950805664063	861.9088745117188	75.78706359863281	1371.172607421875	824.9511108398438	51.38319778442383	1437.751708984375	698.3307495117188	1084.221435546875	1264.52099609375	694.768798828125	179.9498901367188	1413.396484375	662.2078247070313	183.3877410888672	1373.13232421875	688.5885620117188	264.2274780273438	1423.192016601563	655.9210205078125	263.5820922851563	1380.149658203125	766.361328125	674.2030029296875	1406.711791992188	699.9259643554688	675.6246337890625	1375.358764648438	765.06591796875	785.2395629882813	1409.39208984375	703.9744873046875	785.9251098632813	1376.08056640625	779.0103759765625	478.3308715820313	1368.829956054688	
3	0.01333333333333333	716.8807373046875	111.4320602416992	1045.45361328125	727.4339599609375	119.9394302368164	1126.226318359375	849.5198974609375	1064.55615234375	1104.214477539063	782.8097534179688	959.862060546875	1050.489501953125	638.2359619140625	42.63712692260742	1086.640380859375	674.6508178710938	58.1277961730957	1043.214111328125	649.202880859375	92.83683776855469	1089.834838867188	722.1566772460938	496.4627380371094	1048.236450195313	767.0594482421875	1121.9169921875	1064.73779296875	721.2355346679688	552.3760986328125	1055.944458007813	722.6067504882813	536.1795043945313	1170.098754882813	859.2196655273438	62.09598159790039	1140.579833984375	867.0723266601563	73.49734497070313	1099.828002929688	835.1513671875	55.37323379516602	1031.846557617188	688.1963500976563	1080.79150390625	1182.025390625	710.4236450195313	186.5546264648438	1043.748168945313	666.932373046875	185.7417602539063	1076.55419921875	701.8294067382813	265.4899291992188	1032.748168945313	659.1439819335938	265.6970520019531	1065.088745117188	736.6292114257813	644.1065673828125	1049.077026367188	677.548095703125	650.3519897460938	1093.548583984375	738.562744140625	754.0679931640625	1039.615966796875	684.0940551757813	760.3497314453125	1083.65283203125	773.0358276367188	476.8770446777344	1094.83203125	708.5955810546875	110.3103256225586	1411.297607421875	728.0878295898438	127.505859375	1333.444946289063	873.0972900390625	1071.95556640625	1316.86279296875	813.650390625	968.0398559570313	1386.24267578125	631.629150390625	45.22221374511719	1364.959716796875	668.7078857421875	66.59944915771484	1410.978271484375	641.8607788085938	93.82528686523438	1364.421752929688	724.7066650390625	498.9338073730469	1410.160522460938	806.5427856445313	1134.530151367188	1363.232299804688	728.3990478515625	565.7499389648438	1400.232299804688	730.4532470703125	541.6717529296875	1286.409912109375	844.8329467773438	58.11276626586914	1322.952880859375	861.906494140625	75.79367828369141	1371.169555664063	824.9517822265625	51.38436508178711	1437.756958007813	698.314453125	1084.217163085938	1264.51611328125	694.7569580078125	179.9481811523438	1413.390258789063	662.1971435546875	183.3858947753906	1373.12158203125	688.575439453125	264.2276306152344	1423.192749023438	655.917236328125	263.5830078125	1380.144409179688	766.3446655273438	674.2074584960938	1406.70947265625	699.9077758789063	675.6271362304688	1375.357421875	765.0394897460938	785.2398071289063	1409.395141601563	703.9429321289063	785.9246826171875	1376.086059570313	778.9957275390625	478.3347778320313	1368.81591796875	
4	0.02	716.8673706054688	111.4470138549805	1045.454467773438	727.4359741210938	119.9466857910156	1126.209106445313	849.5123901367188	1064.553588867188	1104.215698242188	782.8163452148438	959.8573608398438	1050.481689453125	638.226318359375	42.64624786376953	1086.648559570313	674.6519165039063	58.12920379638672	1043.21630859375	649.1937866210938	92.8519287109375	1089.83642578125	722.1532592773438	496.4468383789063	1048.237182617188	767.0674438476563	1121.918579101563	1064.739990234375	721.2296142578125	552.374755859375	1055.9375	722.5692138671875	536.1756591796875	1170.105712890625	859.2159423828125	62.09781265258789	1140.586059570313	867.06884765625	73.49589538574219	1099.826293945313	835.1612548828125	55.37332916259766	1031.848022460938	688.1857299804688	1080.789184570313	1182.01025390625	710.420166015625	186.5614776611328	1043.745239257813	666.9286499023438	185.7446136474609	1076.559448242188	701.8181762695313	265.4856567382813	1032.740600585938	659.1395263671875	265.6986389160156	1065.094482421875	736.6484985351563	644.0925903320313	1049.084106445313	677.553466796875	650.3531494140625	1093.540649414063	738.578369140625	754.0724487304688	1039.610961914063	684.10205078125	760.349365234375	1083.637817382813	773.0410766601563	476.8768005371094	1094.83984375	708.594970703125	110.310920715332	1411.298828125	728.0857543945313	127.5061874389648	1333.450927734375	873.0862426757813	1071.95068359375	1316.873168945313	813.634033203125	968.0430908203125	1386.238647460938	631.6173706054688	45.2263069152832	1364.960693359375	668.7078247070313	66.60289001464844	1410.973876953125	641.8580322265625	93.83000183105469	1364.427124023438	724.6854248046875	498.9281311035156	1410.149536132813	806.5159301757813	1134.521118164063	1363.234985351563	728.3741455078125	565.7603759765625	1400.229370117188	730.4817504882813	541.6622314453125	1286.413696289063	844.8306884765625	58.11600112915039	1322.960571289063	861.9010620117188	75.79415130615234	1371.178466796875	824.955078125	51.37763595581055	1437.755859375	698.30126953125	1084.2236328125	1264.512451171875	694.7628173828125	179.9515533447266	1413.396118164063	662.2045288085938	183.3762664794922	1373.126953125	688.563720703125	264.2298278808594	1423.194946289063	655.91015625	263.5757446289063	1380.13623046875	766.3251953125	674.2139282226563	1406.71435546875	699.8762817382813	675.618896484375	1375.34619140625	765.0181884765625	785.2426147460938	1409.387451171875	703.9188232421875	785.9140014648438	1376.071166992188	778.98486328125	478.3294677734375	1368.808959960938	
